<?xml version="1.0" encoding="UTF-8" standalone="no"?>
<svg
   width="726.59814pt"
   height="255.74182pt"
   viewBox="0 0 726.59814 255.74182"
   version="1.1"
   id="svg11"
   xmlns="http://www.w3.org/2000/svg"
   xmlns:svg="http://www.w3.org/2000/svg">
  <defs
     id="defs11" />
  <g
     id="g11"
     transform="translate(-36.255663,-54.269984)">
    <path
       fill-rule="nonzero"
       fill="#ffffff"
       fill-opacity="1"
       d="m 43.980469,186.37109 c -0.914063,0.17578 -1.859375,0.15235 -2.765625,-0.0742 -0.902344,-0.22656 -1.75,-0.64843 -2.472656,-1.23828 -0.726563,-0.58984 -1.316407,-1.32812 -1.722657,-2.17187 -0.410156,-0.83985 -0.628906,-1.76172 -0.644531,-2.69531 -0.222656,-1.36329 -0.132812,-2.75782 0.261719,-4.07813 0.394531,-1.32422 1.085937,-2.53516 2.019531,-3.55078 0.914062,-1.75391 7.609375,-1.67969 7.609375,-1.67969 0,0 6.621094,1.29688 12.628906,2.0625 1.015625,0.0742 2.03125,0.0742 3.046875,0 6.390625,0 13.011719,-2.0625 18.488282,-2.0625 1.25,0.0937 2.457031,0.48047 3.527343,1.125 1.074219,0.64844 1.976563,1.53516 2.644531,2.59766 0.664063,1.0625 1.074219,2.26562 1.191407,3.51172 0.117187,1.25 -0.05859,2.50781 -0.511719,3.67578 -0.839844,2.21094 0.53125,2.74609 -2.96875,3.58594 -2.78125,0.30859 -5.589844,0.30859 -8.371094,0 -0.585937,-0.1836 -1.199218,-0.25 -1.808594,-0.1836 -0.609374,0.0625 -1.203124,0.25 -1.734374,0.55078 -0.535157,0.29688 -1.003907,0.70703 -1.375,1.19532 -0.371094,0.48437 -0.640626,1.04687 -0.789063,1.64062 l -0.761719,98.03516 c 0,5.33984 1.980469,6.78906 4.492188,7.6289 3.191406,0.71485 6.46875,0.9961 9.738281,0.83985 H 91.3125 c 4.609375,0.0117 9.20313,-0.5 13.69531,-1.52735 1.27344,-0.13672 2.5,-0.5664 3.58203,-1.25781 1.08204,-0.68359 1.99219,-1.61328 2.66016,-2.71094 1.30469,-3.66797 1.94922,-7.54297 1.90234,-11.4414 0,-3.96875 -0.45703,-8.31641 -0.60937,-17.92969 -0.0703,-1.41406 0.16406,-2.83203 0.6875,-4.14844 0.52734,-1.3164 1.32812,-2.5039 2.35547,-3.48047 0.60156,-0.51562 1.30859,-0.89062 2.07031,-1.10156 0.76563,-0.21094 1.5625,-0.25 2.34375,-0.11719 0.81641,-0.0664 1.64063,0.0469 2.41406,0.32032 0.77344,0.27734 1.48047,0.71484 2.07422,1.28125 1.75,1.21875 1.59766,3.73828 1.67578,5.94921 0,10.60547 -1.0664,18.08204 -0.99218,24.49219 -0.008,6.04688 0.39843,12.08594 1.21875,18.07813 -0.0312,1.22656 -0.41407,2.41797 -1.10157,3.43359 -0.6914,1.01172 -1.65234,1.80859 -2.77734,2.28906 -3.59375,1.34766 -7.45313,1.82032 -11.26172,1.3711 -10.04687,-0.37891 -29.070312,-2.13282 -40.632812,-1.98047 -8.523438,0 -17.808594,1.67578 -26.863282,1.98047 -1.597656,0 -5.023437,0 -5.933594,-1.90625 -0.960937,-1.80469 -1.433593,-3.82813 -1.371093,-5.875 -0.08984,-1.9961 0.382812,-3.98047 1.371093,-5.71875 0.910157,-1.91016 5.019532,-2.0625 6.617188,-1.83203 1.601562,0.23046 9.894531,7.6289 10.273438,-7.62891 0,0 0.761718,-93.07422 -1.066407,-97.19531 -1.824219,-4.11719 -9.664062,-2.0586 -9.664062,-2.0586"
       id="path2" />
    <path
       fill-rule="nonzero"
       fill="#ffffff"
       fill-opacity="1"
       d="m 182.69922,245.57031 c 8.13672,1.8086 16.58984,1.65235 24.65625,-0.45703 1.67187,-1.29687 -11.56641,-52.25781 -11.56641,-52.25781 0,0 -15.98047,51.72656 -13.08984,52.71484 m 6.08984,-72.01562 c 0.73438,-1.12891 1.75781,-2.03907 2.96094,-2.64453 1.20312,-0.60157 2.54297,-0.875 3.88672,-0.78907 4.94531,0 4.5664,0.45703 6.61719,2.21094 3,5.26172 5.10937,10.98438 6.24218,16.9375 l 26.10157,99.71094 c 0.91015,3.20703 0,4.27344 4.86718,4.88281 1.52344,0 3.88282,-0.76172 8.14063,-0.60937 4.26172,0.15234 4.26172,6.63671 4.26172,9.0039 0,2.36328 -2.89063,6.25391 -4.26172,6.10156 -6.61719,-0.6875 -13.23828,-2.67187 -19.17188,-2.67187 -5.85156,0.58594 -11.66797,1.47656 -17.42578,2.67187 -1.90234,0 -7.60937,-1.0664 -8.37109,-2.97656 -0.98828,-3.20312 -2.28125,-8.39062 1.21875,-10.29687 2.625,-1.8086 5.8164,-2.59766 8.97656,-2.21485 2.13281,0 3.57813,0 4.48828,-4.26953 0,0 -3.95312,-28.45703 -6.76953,-28.99219 -9.95312,-1.01953 -19.98828,-0.86328 -29.90625,0.45704 -4.86719,1.83203 -8.82422,28.23046 -8.82422,28.23046 -0.76172,2.7461 0.6836,3.89063 2.50781,4.95704 2.125,0.71484 4.42188,0.71484 6.54688,0 6.76953,0.91406 5.09766,9.53515 4.26172,11.0625 -0.83985,1.52734 -2.81641,4.19531 -4.49219,4.12109 -5.93359,-0.46094 -13.23828,-2.75 -18.48828,-2.75 -5.25,0 -20.39453,3.51172 -22.82813,1.91016 -1.05468,-0.75 -1.92187,-1.73047 -2.54296,-2.86719 -0.6211,-1.13672 -0.97266,-2.40235 -1.03516,-3.69531 0,-2.36329 0.6875,-8.54297 6.69531,-7.62891 1.39453,0.46484 2.86719,0.62891 4.32813,0.49219 1.46093,-0.14063 2.8789,-0.58203 4.16015,-1.30078 1.27735,-0.71875 2.39844,-1.69532 3.28125,-2.86719 0.88672,-1.17578 1.51563,-2.51953 1.85157,-3.95313 0,0 28.30859,-112.07031 32.72265,-112.22265"
       id="path3" />
    <path
       fill-rule="nonzero"
       fill="#ffffff"
       fill-opacity="1"
       d="m 418.96875,230.54297 c -3.28906,8.60547 -4.71484,17.80859 -4.1875,27.00781 -0.53125,9.16797 0.65625,18.35156 3.50391,27.08203 1.03125,3.25391 3.05468,6.09766 5.78515,8.13672 2.73047,2.03906 6.02735,3.16797 9.42969,3.23047 3.54687,-0.32813 6.93359,-1.63672 9.77734,-3.77734 2.84766,-2.14063 5.05078,-5.03125 6.35547,-8.35157 3.32031,-8.70312 4.7461,-18.01562 4.1875,-27.3125 0.28516,-8.92968 -1.48437,-17.80468 -5.17578,-25.9414 -1.16016,-3.14844 -3.22656,-5.88672 -5.9375,-7.86719 -2.70312,-1.98047 -5.93359,-3.11719 -9.28125,-3.26953 -6.77344,0 -10.72656,3.66406 -14.45703,11.0625 m -19.32813,-44.32422 c -0.91406,-0.38281 -0.60546,-1.07031 -4.03515,-0.99219 -1.44141,0 -3.87891,0 -4.71485,-1.90625 -0.5,-1.76172 -0.6289,-3.60547 -0.38281,-5.41797 -0.0625,-0.73828 0.0274,-1.47656 0.26172,-2.17968 0.23438,-0.69922 0.60938,-1.34375 1.09766,-1.89454 0.49609,-0.55078 1.09375,-0.99218 1.76172,-1.30468 0.67187,-0.3086 1.39453,-0.47657 2.13281,-0.4961 2.05078,0 6.3125,1.60157 9.89062,1.60157 3.57422,0 5.09766,-3.58594 9.20703,-0.60938 0.60547,3.5 0.78516,7.0625 0.53125,10.60547 0,12.73828 -0.76171,32.26953 -0.76171,32.26953 2.53125,-3.19922 5.72265,-5.80078 9.36328,-7.62891 3.52343,-1.73828 7.41015,-2.625 11.33593,-2.59375 5.27344,0.0781 10.41797,1.64454 14.84766,4.51563 4.42969,2.875 7.95703,6.94141 10.1875,11.73437 5.67578,10.94922 8.30469,23.23047 7.60938,35.55079 0.5039,12.61328 -2.30469,25.13281 -8.14454,36.3164 -2.5039,4.84766 -6.29687,8.90625 -10.95312,11.73047 -4.66016,2.82813 -10.00391,4.3125 -15.44922,4.28906 -3.31641,-0.10156 -6.55859,-1.01953 -9.43359,-2.66797 -3.60157,-1.78906 -6.73047,-4.40234 -9.13282,-7.63281 -0.76171,2.44141 0.53125,6.48438 -1.29296,7.63281 -0.70704,1.00391 -1.67969,1.80079 -2.8086,2.29688 -1.125,0.49609 -2.36719,0.67578 -3.58594,0.51953 -1.21875,-0.15625 -2.375,-0.64453 -3.33984,-1.41016 -0.96484,-0.76562 -1.70312,-1.78125 -2.13672,-2.93359 -0.76172,-3.73828 0,-38.14453 0,-68.12891 0,-23.64843 -0.45703,-44.24609 -0.45703,-44.24609 -0.23047,-2.51953 -0.15234,-6.48437 -1.59766,-7.01953"
       id="path4" />
    <path
       fill-rule="nonzero"
       fill="#ffffff"
       fill-opacity="1"
       d="m 506.85547,230.54297 c -3.28516,8.60547 -4.71485,17.80859 -4.1836,27.00781 -0.53515,9.16797 0.65235,18.35156 3.5,27.08203 1.03125,3.25391 3.05469,6.09766 5.78516,8.13672 2.73047,2.03906 6.02734,3.16797 9.43359,3.23047 3.53516,-0.32422 6.91016,-1.63281 9.7461,-3.77344 2.83594,-2.14453 5.02344,-5.03906 6.30859,-8.35547 3.38281,-8.6875 4.83985,-18.00781 4.26172,-27.3125 0.28516,-8.92968 -1.48437,-17.80468 -5.17578,-25.9414 -1.16406,-3.14844 -3.22656,-5.88672 -5.93359,-7.86719 -2.70704,-1.98047 -5.9375,-3.11719 -9.28125,-3.26953 -6.77735,0 -10.73438,3.66406 -14.46094,11.0625 m -19.32813,-44.32422 c -0.91406,-0.38281 -0.60937,-1.07031 -4.03125,-0.99219 -1.44531,0 -3.8789,0 -4.71875,-1.90625 -0.5,-1.76172 -0.6289,-3.60547 -0.38281,-5.41797 -0.0586,-0.73828 0.0273,-1.47656 0.26172,-2.17968 0.23437,-0.69922 0.60937,-1.34375 1.10156,-1.89454 0.48828,-0.55078 1.08985,-0.99218 1.75781,-1.30468 0.67188,-0.3086 1.39454,-0.47657 2.13282,-0.4961 2.05468,0 6.39062,1.60157 9.89062,1.60157 3.5,0 5.09766,-3.58594 9.20703,-0.60938 0.60547,3.5 0.78516,7.0625 0.53516,10.60547 0,12.73828 -0.76563,32.26953 -0.76563,32.26953 2.52735,-3.19922 5.72266,-5.80078 9.35938,-7.62891 3.53125,-1.73828 7.41016,-2.625 11.33984,-2.59375 5.27344,0.0781 10.41797,1.64454 14.84766,4.51563 4.42969,2.875 7.95703,6.94141 10.1875,11.73437 5.67578,10.94922 8.30859,23.23047 7.60937,35.55079 0.50391,12.61328 -2.30468,25.13281 -8.14062,36.3164 -2.50781,4.84766 -6.29688,8.90625 -10.95313,11.73047 -4.66015,2.82813 -10.0039,4.3125 -15.44921,4.28906 -3.32032,-0.10156 -6.5586,-1.01953 -9.44141,-2.66797 -3.59766,-1.78906 -6.72656,-4.40234 -9.12891,-7.63281 -0.76172,2.44141 0.53516,6.48438 -1.29297,7.63281 -0.71093,1.00391 -1.67968,1.80079 -2.80859,2.29688 -1.125,0.49609 -2.36328,0.67578 -3.58594,0.51953 -1.21875,-0.15625 -2.37109,-0.64453 -3.33984,-1.41016 -0.96484,-0.76562 -1.70313,-1.78125 -2.13672,-2.93359 -0.76172,-3.73828 0,-38.14453 0,-68.12891 0,-23.64843 -0.53125,-44.24609 -0.53125,-44.24609 -0.23047,-2.51953 -0.0742,-6.48437 -1.52344,-7.01953"
       id="path5" />
    <path
       fill-rule="nonzero"
       fill="#ffffff"
       fill-opacity="1"
       d="m 579.82812,220.77734 c -1.89062,-0.28906 -3.8125,-0.28906 -5.70703,0 -0.80078,0.21875 -1.65234,0.15625 -2.41015,-0.17968 -0.76563,-0.33204 -1.38672,-0.91407 -1.77344,-1.65235 -0.95313,-1.46875 -1.40625,-3.20703 -1.29297,-4.95703 -0.0352,-1.125 0.23047,-2.24219 0.76563,-3.23437 0.53515,-0.98829 1.32031,-1.82032 2.27734,-2.41016 0.92187,-0.64063 1.96484,-1.07813 3.06641,-1.28516 1.10156,-0.21093 2.23437,-0.1914 3.32421,0.0625 2.33204,1.2461 4.98438,1.75391 7.60938,1.44922 5.48047,0 7.60937,-3.66015 11.26172,0 0.66015,2.90235 0.83984,5.89063 0.53515,8.85156 0,1.14454 -0.76171,2.89844 -0.76171,4.19532 0.45703,22.35156 0.45703,66.14453 0.45703,66.14453 0,3.05078 0,6.2539 3.11718,6.63672 3.1211,0.38281 5.78125,-0.60938 7.61329,0 0.99609,0.48437 1.83984,1.24609 2.43359,2.1875 0.59375,0.94531 0.91016,2.03515 0.91016,3.15234 0.16406,2.03906 -0.34766,4.07422 -1.44532,5.79688 -0.68359,0.76953 -1.53125,1.375 -2.47656,1.77343 -0.94922,0.39453 -1.97656,0.57032 -3,0.51563 -5.55469,0.45703 -8.14453,-1.90625 -15.75391,-1.60156 -5.46875,1.00781 -11.02734,1.4414 -16.58593,1.29687 -2.58985,-0.53516 -3.5,-4.65234 -3.5,-7.09375 0,-2.44141 1.51953,-6.71484 4.64062,-6.17969 1.89844,0.1211 3.8086,0.1211 5.70703,0 3.42578,-0.38281 3.88282,-3.89062 3.88282,-6.63672 v -61.03515 c -0.0781,-1.44922 0.53125,-5.10938 -2.89454,-5.79688"
       id="path6" />
    <path
       fill-rule="nonzero"
       fill="#ffffff"
       fill-opacity="1"
       d="m 631.80078,222 c -1.29297,-0.99219 -5.25,0.76172 -7.60937,-0.61328 -2.35938,-1.3711 -3.73047,-4.04297 -3.73047,-4.04297 -0.082,-2.43359 0.14843,-4.87109 0.6875,-7.24609 0.91015,-1.75391 2.58593,-3.35547 4.10937,-3.05079 3.5,0 6.54297,1.82813 7.60547,-1.44921 0.63281,-6.51563 0.8125,-13.06641 0.53516,-19.60938 0,0 0,-4.88281 1.44531,-6.10156 1.17187,-1.42578 2.82031,-2.375 4.64062,-2.67188 2.07422,0.0664 4.07032,0.78907 5.71094,2.0586 1.5,1.92968 2.20703,4.35937 1.97656,6.79297 v 9.23046 c -0.32812,3.375 -0.32812,6.77344 0,10.14454 0,1.98437 1.67188,2.21484 3.34766,2.0625 3.29688,0.19921 6.59766,0.19921 9.89063,0 1.96093,-0.0508 3.91796,-0.20704 5.85937,-0.45704 1.59766,0 4.41406,1.90625 5.32813,3.50782 0.68359,1.82422 0.92187,3.78515 0.68359,5.72265 -0.25781,1.44922 -0.99219,2.77344 -2.07813,3.76563 -1.08593,0.99219 -2.46875,1.59765 -3.93359,1.72656 -3.95703,0.16016 -7.91797,-0.17578 -11.79297,-0.99219 -2.04687,-0.23437 -4.11719,-0.23437 -6.16406,0 -1.44531,0 -0.99219,6.25782 -1.29297,7.09375 -0.30469,0.83985 0,50.58203 0,50.58203 -0.32422,4.39844 0.62891,8.79688 2.73828,12.66407 0.6836,1.35547 1.81641,2.43359 3.20703,3.04687 1.38672,0.60938 2.94141,0.72266 4.40235,0.3086 2.89062,-0.6836 4.33984,-1.98047 5.78125,-5.56641 1.90234,-5.93359 2.65234,-12.17578 2.20703,-18.38672 -0.3125,-3.28125 0.10156,-6.58984 1.21875,-9.6875 0.8164,-0.74219 1.78515,-1.29687 2.83594,-1.625 1.05078,-0.32812 2.16015,-0.42578 3.2539,-0.28516 0.88672,0.1875 1.71094,0.60157 2.39063,1.20704 0.67968,0.59765 1.1914,1.36718 1.48828,2.22656 0.8164,1.85156 1.25781,3.85156 1.29297,5.875 0.58203,10.1914 -1.02735,20.39062 -4.71485,29.90625 -1.05859,3.22265 -3.09765,6.03515 -5.82422,8.04297 -2.72656,2.01172 -6.01171,3.12109 -9.39453,3.17187 -3.53515,0.79297 -7.21875,0.67188 -10.6914,-0.35547 -3.47657,-1.02734 -6.63282,-2.92968 -9.17188,-5.51953 -4.03125,-5.26562 -4.33594,-10.67969 -5.39844,-21.21094 l -0.53515,-50.04296 c 0.15234,-2.89844 0.83594,-9.15625 -0.30469,-10.22266"
       id="path7" />
    <path
       fill-rule="nonzero"
       fill="#ffffff"
       fill-opacity="1"
       d="m 710.70703,231.38281 c -3.86328,8.6211 -5.71094,18.01563 -5.40234,27.46485 -0.17969,9.02734 1.77343,17.96875 5.71093,26.08984 1.3125,3.32422 3.58594,6.18359 6.52344,8.20703 2.94531,2.02344 6.41797,3.125 9.98828,3.16016 7.60938,0 11.71485,-4.5 15.97657,-12.12891 3.83203,-7.84375 5.63671,-16.52734 5.25,-25.25391 0.38281,-9.41015 -1.41407,-18.78515 -5.25,-27.38671 -4.26172,-7.62891 -8.59766,-11.90235 -15.97657,-11.90235 -3.65625,0.0469 -7.21093,1.19141 -10.20703,3.28516 -3,2.09765 -5.30078,5.04297 -6.61328,8.46484 m 44.05859,-9.38672 c 5.89844,11.51563 8.65235,24.38282 7.99219,37.3086 0.46875,12.25 -2.51562,24.38672 -8.60156,35.01562 -2.48438,4.79297 -6.28516,8.77344 -10.94531,11.47656 -4.66407,2.70313 -10,4.01563 -15.38282,3.78125 -5.51171,0.41016 -11.03125,-0.74218 -15.92187,-3.3164 -4.89844,-2.57422 -8.97656,-6.47266 -11.77344,-11.25391 -6.32422,-10.92578 -9.53125,-23.3789 -9.28515,-36.00781 -0.47266,-12.76953 2.52734,-25.42969 8.67578,-36.62109 2.60547,-5.01563 6.52734,-9.21875 11.33984,-12.16407 4.8125,-2.94531 10.33594,-4.51562 15.97656,-4.54297 5.6875,-0.0273 11.27344,1.46875 16.1875,4.33985 4.91016,2.87109 8.96485,7.01172 11.73828,11.98437"
       id="path8" />
    <path
       fill-rule="nonzero"
       fill="#ffffff"
       fill-opacity="1"
       d="m 304.52344,124.80469 c -2.10938,-7.98047 -2.73047,-16.28516 -1.82422,-24.48828 3.67187,-10.257816 6.72265,-20.730472 9.1289,-31.355472 0.6875,-3.664063 -0.3789,-13.277344 2.66407,-14.496094 3.04297,-1.222656 7.60937,3.433594 8.82812,10.453125 1.32031,12.335937 1.09375,24.792969 -0.6875,37.074221 2.5586,-9.382815 5.73438,-18.582034 9.51563,-27.539065 1.4414,-1.90625 0,-4.503906 1.29297,-7.628906 1.29296,-3.128907 1.90234,-5.265625 4.18359,-4.503907 3.48437,4.636719 5.78125,10.0625 6.67969,15.792969 0.90234,5.734375 0.38672,11.605469 -1.50391,17.089844 -4.29687,13.476565 -10.38672,26.308595 -18.10937,38.144535 0.77734,5.89062 1.10937,11.83593 0.98828,17.77734 3.58203,10.64844 9.8164,20.20703 18.10937,27.76953 10.57813,9.99219 32.26172,37.23047 34.24219,47.67969 2.48047,11.23437 2.48047,22.87109 0,34.10547 -2.66406,16.70703 -5.48047,18.53515 -3.04297,17.16406 2.43359,-1.375 12.25,-2.28906 9.66016,9.30469 -0.5625,0.91406 -1.32422,1.6875 -2.23438,2.25781 -0.90625,0.57422 -1.93359,0.92578 -3,1.03906 -1.0664,0.10938 -2.14062,-0.0273 -3.14844,-0.39844 -1.00781,-0.375 -1.91015,-0.97265 -2.64843,-1.75 -1.06641,7.62891 -14.45703,8.39063 -14.45703,8.39063 0,0 -1.14063,3.50781 -7.60938,5.57031 -9.74219,3.35547 -30.4375,-0.99219 -47.86328,1.21875 -12.35547,1.40625 -24.8125,1.63281 -37.21094,0.6875 -3.72656,-0.6875 -2.8125,-5.49219 0,-9.23047 2.81641,-3.73828 13.6211,-3.89062 25.03516,-2.21484 -2.60938,-1.91406 -4.75391,-4.40234 -6.26172,-7.27344 -1.51172,-2.86719 -2.34766,-6.04297 -2.45313,-9.28906 -0.10156,-3.24219 0.53516,-6.46484 1.85938,-9.42578 1.32422,-2.95703 3.30469,-5.57813 5.79297,-7.65625 3.04297,-1.29688 3.64844,-2.51563 3.64844,-2.51563 -0.22657,-1.10547 -0.63672,-2.16015 -1.21485,-3.1289 -9.35937,-13.1211 -7.99219,-37 -7.99219,-37 0,0 -11.71484,0.99218 -12.85937,3.1289 -1.12109,2.75391 -3.13281,5.05469 -5.71094,6.53516 -2.57812,1.48047 -5.57812,2.05078 -8.51562,1.625 -9.66407,-6.55859 5.85937,-12.12891 6.3164,-19.22266 -6.01172,3.66016 -6.01172,12.58594 -15.21875,7.01563 -4.5664,-8.46485 7.60547,-14.33985 12.9336,-18.46094 2.40234,-2.74219 5.51562,-4.76562 8.99609,-5.84375 3.47656,-1.07422 7.18359,-1.16406 10.71094,-0.25781 -0.11719,-4.4961 -0.8086,-8.95703 -2.05078,-13.27735 -5.14844,-3.26953 -9.7461,-7.33593 -13.6211,-12.05468 -0.83984,-0.53125 -11.26172,-5.41407 -10.65625,-15.25782 0.60938,-5.71875 7.60938,-8.46484 14.3086,-16.39843 6.01172,-4.73047 13.92187,-11.52344 35,-9.15625"
       id="path9" />
    <path
       fill-rule="nonzero"
       fill="#ffffff"
       fill-opacity="1"
       d="m 588.96094,175.00391 c 2.66406,0.60937 7.15234,0.60937 8.97656,6.40625 0.77734,2.05078 1.10156,4.24218 0.96094,6.42578 -0.14453,2.18359 -0.75782,4.3125 -1.79688,6.24218 -0.77734,1.54688 -1.92969,2.875 -3.35156,3.85938 -1.42578,0.98828 -3.07031,1.60156 -4.78906,1.78516 -5.40235,0.60937 -9.35938,-6.63672 -9.35938,-11.67579 0,-5.03125 0.30078,-11.97656 9.35938,-13.04296"
       id="path10" />
  </g>
</svg>
