<?xml version="1.0" encoding="UTF-8" standalone="no"?>
<svg
   width="203.36989pt"
   height="371.30646pt"
   viewBox="0 0 203.36989 371.30646"
   version="1.1"
   id="svg11"
   xmlns="http://www.w3.org/2000/svg"
   xmlns:svg="http://www.w3.org/2000/svg">
  <defs
     id="defs11" />
  <path
     fill-rule="nonzero"
     fill="#ffffff"
     fill-opacity="1"
     d="m 83.949077,104.56233 c -3.12891,-11.828122 -4.04688,-24.136722 -2.70703,-36.304692 5.44531,-15.20312 9.96484,-30.72656 13.53515,-46.48046 1.01954,-5.42969 -0.5625,-19.6796898 3.94922,-21.48828981 4.511723,-1.81249999 11.281253,5.08985001 13.085943,15.49218981 1.96094,18.29297 1.62109,36.76172 -1.01562,54.96875 3.79296,-13.91015 8.5,-27.55078 14.10156,-40.83203 2.14453,-2.82422 0,-6.67187 1.91797,-11.30859 1.91797,-4.63672 2.82031,-7.80469 6.20312,-6.67188 5.16797,6.8711 8.57031,14.91016 9.90625,23.41016 1.33594,8.5 0.57031,17.20312 -2.23437,25.33594 -6.36719,19.97656 -15.39453,38.99609 -26.84766,56.546872 1.15625,8.73438 1.64453,17.54297 1.46484,26.35156 5.3125,15.78907 14.55079,29.96094 26.84766,41.16797 15.67969,14.81641 47.83203,55.19141 50.76172,70.6875 3.67969,16.64844 3.67969,33.90625 0,50.55469 -3.94922,24.76953 -8.12109,27.48437 -4.50781,25.44531 3.60547,-2.03515 18.16015,-3.39062 14.32031,13.80078 -0.83203,1.35547 -1.96484,2.5 -3.30859,3.34766 -1.34766,0.84375 -2.86719,1.37109 -4.44922,1.53516 -1.58203,0.16406 -3.17578,-0.0391 -4.66797,-0.58985 -1.49219,-0.55469 -2.83203,-1.4414 -3.92969,-2.59765 -1.57812,11.30859 -21.42969,12.4414 -21.42969,12.4414 0,0 -1.6914,5.20313 -11.28125,8.25391 -14.4414,4.97656 -45.12109,-1.46875 -70.957033,1.8125 -18.3125,2.08203 -36.78125,2.42187 -55.16015,1.01562 -5.52735,-1.01562 -4.17188,-8.14453 0,-13.68359 4.17578,-5.54297 20.1914,-5.76953 37.11328,-3.28125 -3.8711,-2.83984 -7.04688,-6.52734 -9.28516,-10.78125 -2.23828,-4.25391 -3.48047,-8.96094 -3.63281,-13.76953 -0.15235,-4.8086 0.78906,-9.58594 2.7539,-13.97266 1.96485,-4.39062 4.90235,-8.26953 8.58594,-11.35156 4.51172,-1.92188 5.41406,-3.73438 5.41406,-3.73438 -0.33984,-1.63281 -0.94921,-3.20312 -1.80468,-4.63671 -13.875,-19.45313 -11.84375,-54.85157 -11.84375,-54.85157 0,0 -17.375,1.47266 -19.06641,4.63672 -1.66406,4.08985 -4.64453,7.5 -8.46875,9.69141 -3.82422,2.19531 -8.26562,3.04297 -12.625,2.41015 -14.32812003,-9.72656 8.6875,-17.98046 9.36328,-28.5 -8.91015,5.42969 -8.91015,18.66016 -22.5625,10.40625 -6.76562,-12.55468 11.28125,-21.26562 19.17969,-27.37109 3.55859,-4.06641 8.17578,-7.06641 13.33203,-8.66016 5.15625,-1.59765 10.65625,-1.73437 15.88281,-0.38671 -0.17968,-6.66407 -1.19922,-13.27735 -3.04687,-19.67969 -7.62891,-4.84766 -14.44531,-10.87891 -20.19141,-17.8711 -1.24219,-0.78906 -16.69531,-8.02734 -15.79297,-22.61718 0.90235,-8.48438 11.28125,-12.55469 21.20703,-24.31641 8.91407,-7.01172 20.64454,-17.07812 51.89063,-13.57422"
     id="path11" />
</svg>
